<svg width="149" height="22" viewBox="0 0 149 22" fill="none" xmlns="http://www.w3.org/2000/svg">
<path fill-rule="evenodd" clip-rule="evenodd" d="M121.396 19.5856H126.64L128.388 16.8302H139.796L137.633 13.0818H130.566L134.64 6.26681L142.877 19.5856H148.122L137.218 1.77782H131.974L121.396 19.5856ZM24.6376 19.5856H29.8821L31.6303 16.8302H43.038L40.875 13.0818H33.7933L37.8823 6.26681L46.1195 19.5856H51.3641L40.4602 1.77782H35.2156L24.6376 19.5856ZM98.195 19.4967H102.773V5.77791H113.484C115.055 5.77791 115.899 6.51866 115.899 7.76314C115.899 9.05205 114.773 9.61503 113.484 9.61503H103.854L104.61 13.4966H112.018C115.514 13.4966 115.603 14.3264 116.017 19.5856H120.432L120.18 15.2448C120.092 13.4227 119.099 12.6672 118.343 12.163L118.091 12.0003C119.425 11.2447 120.506 10.178 120.506 7.34831C120.506 3.77766 117.839 1.77782 113.928 1.77782H98.1946V19.4967H98.195ZM71.4683 1.77782H57.7198C54.0605 1.77782 51.0678 3.77786 51.0678 7.60017V14.3264C51.0678 17.6597 54.1494 19.5856 57.2309 19.5856H71.4683V15.9115L57.8976 15.8966C56.3864 15.8966 55.6457 14.6668 55.6457 13.2445V8.42982C55.6457 6.26681 56.8902 5.52605 58.8902 5.52605H71.4683V1.77782ZM74.1054 1.77782V13.4225C74.1054 16.5781 75.7943 19.5854 79.9425 19.5854H89.78C94.0171 19.5854 95.4542 16.5041 95.4542 13.4964V1.77782H90.7874V13.9112C90.7874 15.4078 89.6911 16.0742 88.002 16.0742H81.3946C79.0983 16.0742 78.7575 14.5781 78.7575 12.7558V1.77782H74.1054ZM11.3928 21.3933C3.57045 21.3933 0 16.8302 0 10.6965C0 3.57045 4.07416 0 11.3928 0C19.0967 0 22.7857 3.80749 22.7857 10.6965C22.7857 17.63 18.5782 21.3933 11.3928 21.3933ZM5.89643 18.9782L7.15572 10.1928L10.3262 1.08151C5.68902 1.39262 1.77782 3.70379 1.77782 10.6669C1.77782 14.7413 3.28896 17.4965 5.89643 18.9782ZM11.0669 1.05188V8.42982H11.7929V1.05188H11.0669ZM12.5632 1.08151L15.7337 10.1928L16.993 18.9932C19.6004 17.5263 21.082 14.7707 21.082 10.6671C21.082 3.48156 17.0522 1.36299 12.5632 1.08151ZM16.3707 19.3041L12.0447 10.015H10.7854L6.48903 19.2893C7.88166 19.9264 9.54095 20.2523 11.4225 20.2523C13.3336 20.2523 14.9929 19.9412 16.3707 19.3041Z" fill="white"/>
</svg>
