<svg width="98" height="88" viewBox="0 0 98 88" fill="none" xmlns="http://www.w3.org/2000/svg">
<g clip-path="url(#clip0_19_341)">
<path fill-rule="evenodd" clip-rule="evenodd" d="M79.6118 71.2444V59.3821H74.7163V71.2444H79.6118ZM53.6944 66.3189V59.5616H48.9494V64.7271C48.9494 66.2284 48.8894 66.6494 48.7994 67.0399C48.4689 68.1213 47.3275 68.6007 46.1566 68.6007C44.5353 68.6007 43.7844 67.9703 43.4839 66.9794C43.3939 66.6499 43.3639 66.2894 43.3339 65.929C43.3039 65.5385 43.3339 65.1175 43.3339 64.6681V59.5621H38.5289V66.3494C38.5289 67.8818 39.0398 69.0227 39.8803 69.8031C41.3216 71.215 43.7544 71.6354 46.0066 71.6354C48.7394 71.6354 50.8417 71.245 52.343 69.7736C53.1245 69.0222 53.6944 68.0313 53.6944 66.3189ZM30.3902 65.478C30.1523 65.4367 29.9112 65.4168 29.6698 65.4185H24.2643C23.9938 65.4185 23.6933 65.4485 23.5434 65.478C23.6333 65.3875 23.8138 65.208 23.9938 64.9676L26.4261 60.9429C26.7565 60.403 26.9065 60.0425 26.9665 59.8926C27.0265 60.0425 27.1765 60.403 27.507 60.974L29.9997 65.0286C30.1202 65.208 30.3002 65.3875 30.3902 65.478ZM39.4598 71.2444L28.6483 55.028H22.5825L24.1738 56.9199C24.2038 56.9499 24.2643 56.9793 24.3238 57.0104C24.2638 57.0404 24.2038 57.0698 24.1738 57.0998L14.7442 71.2444H20.2097L21.6815 68.8117C21.7415 68.6917 21.7715 68.5712 21.7715 68.5117C21.8315 68.5117 21.982 68.5712 22.132 68.5712H31.892C32.042 68.5712 32.162 68.5412 32.222 68.5117C32.2165 68.5962 32.2375 68.6802 32.282 68.7522L33.8138 71.2444H39.4598ZM73.3955 65.1486C73.3955 63.8267 72.8545 62.2948 71.1732 60.1625L67.1186 55.0275H61.4726L64.6858 58.6312C65.2268 59.2321 65.9172 59.7721 65.9172 59.7721C65.1368 59.3211 64.1459 59.1416 63.3649 59.1416C61.5031 59.1416 59.6103 59.5321 57.9295 60.4635C56.1272 61.4534 54.9258 63.1057 54.9258 65.2985C54.9258 66.9799 55.6767 68.2717 56.6376 69.2626C58.8004 71.4244 62.7335 71.6349 64.1754 71.6349C66.3071 71.6349 69.6408 71.1545 71.5336 69.4426C72.645 68.4212 73.3955 67.0104 73.3955 65.1486ZM68.7104 65.2985C68.7104 66.5299 67.899 67.4603 66.8781 67.9708C66.0372 68.4217 65.0458 68.5417 64.1754 68.5417C63.305 68.5417 62.2835 68.3612 61.4426 67.9408C60.4217 67.4303 59.6403 66.4394 59.6403 65.358C59.6403 64.0671 60.6312 63.0452 61.8031 62.5348C62.524 62.2053 63.3949 62.0848 64.0849 62.0848C64.7463 62.0848 65.7072 62.1743 66.4581 62.4753C67.81 63.0452 68.7104 64.1266 68.7104 65.2985ZM78.0566 16.3651C74.5404 16.3595 71.126 17.5457 68.3708 19.7303C65.6156 17.5456 62.2012 16.3593 58.685 16.3651C55.169 16.3597 51.7549 17.5459 48.9997 19.7303C46.2448 17.5455 42.8305 16.3592 39.3144 16.3651C35.7984 16.3597 32.3842 17.5459 29.6291 19.7303C26.874 17.5459 23.4598 16.3596 19.9438 16.3651C11.3155 16.3651 4.32324 23.3569 4.32324 31.9857C4.32324 40.6135 11.315 47.6062 19.9438 47.6062C23.4598 47.6116 26.8739 46.4254 29.6291 44.241C32.3842 46.4255 35.7983 47.6117 39.3144 47.6062C42.8305 47.6121 46.2447 46.4258 48.9997 44.241C51.7549 46.4254 55.169 47.6117 58.685 47.6062C62.2012 47.612 65.6156 46.4257 68.3708 44.241C71.126 46.4257 74.5404 47.612 78.0566 47.6062C86.6849 47.6062 93.6766 40.614 93.6766 31.9857C93.6766 23.3574 86.6849 16.3651 78.0566 16.3651ZM27.0733 41.6893C25.0828 43.1413 22.5962 44.0275 19.9438 44.0275C13.2876 44.0275 7.90147 38.6418 7.90147 31.9857C7.90147 25.3295 13.2876 19.9434 19.9438 19.9434C22.5962 19.9434 25.0813 20.83 27.0733 22.2826C24.8786 25.0398 23.687 28.4616 23.6944 31.9857C23.696 35.5084 24.8866 38.9274 27.0733 41.6893ZM29.6296 39.1406C28.0945 37.0714 27.2681 34.5621 27.2731 31.9857C27.2666 29.409 28.0932 26.8993 29.6296 24.8308C31.1657 26.8994 31.9922 29.4091 31.9861 31.9857C31.9909 34.5621 31.1645 37.0713 29.6296 39.1406ZM46.4444 41.6893C44.3764 43.2118 41.8742 44.0301 39.3062 44.0239C36.7436 44.0291 34.2471 43.2107 32.1849 41.6893C34.3718 38.9277 35.5624 35.5088 35.5638 31.9862C35.5712 28.4621 34.3796 25.0403 32.1849 22.2831C34.2469 20.7612 36.7435 19.9426 39.3062 19.9479C41.978 19.9479 44.4463 20.8122 46.4444 22.2831C44.2497 25.0403 43.0581 28.4621 43.0655 31.9862C43.067 35.5088 44.2575 38.9277 46.4444 41.6893ZM48.9997 39.1406C47.4646 37.0714 46.6382 34.5621 46.6432 31.9857C46.637 29.409 47.4635 26.8994 48.9997 24.8308C50.5361 26.8993 51.3629 29.409 51.3567 31.9857C51.3616 34.5622 50.535 37.0715 48.9997 39.1406ZM65.815 41.6893C63.8169 43.1606 61.3486 44.0239 58.6774 44.0239C56.0062 44.0239 53.5536 43.1591 51.5555 41.6893C53.7426 38.9279 54.9332 35.5088 54.9344 31.9862C54.9418 28.4621 53.7502 25.0403 51.5555 22.2831C53.5536 20.8127 56.0062 19.9479 58.6774 19.9479C61.3486 19.9479 63.8169 20.8122 65.815 22.2831C63.6205 25.0405 62.429 28.4622 62.4361 31.9862C62.4378 35.5087 63.6284 38.9276 65.815 41.6893ZM68.3713 39.1406C66.8362 37.0714 66.0098 34.5621 66.0148 31.9857C66.0081 29.409 66.8347 26.8992 68.3713 24.8308C69.9074 26.8994 70.7339 29.4091 70.7278 31.9857C70.7324 34.562 69.906 37.0712 68.3713 39.1406ZM78.0566 44.0275C75.4032 44.0275 72.917 43.1413 70.9271 41.6893C73.1138 38.9276 74.3044 35.5087 74.306 31.9862C74.3131 28.4622 73.1216 25.0405 70.9271 22.2831C72.9191 20.831 75.4037 19.9439 78.0566 19.9439C84.7118 19.9439 90.0989 25.33 90.0989 31.9862C90.0989 38.6413 84.7118 44.0275 78.0566 44.0275Z" fill="white"/>
</g>
<defs>
<clipPath id="clip0_19_341">
<rect width="98" height="98" fill="white" transform="translate(0 -5)"/>
</clipPath>
</defs>
</svg>
