<svg width="146" height="88" viewBox="0 0 146 88" fill="none" xmlns="http://www.w3.org/2000/svg">
<path fill-rule="evenodd" clip-rule="evenodd" d="M2.14648 44.15C2.14648 50.1648 3.81738 53.5732 9.76552 53.5732H24.2666L28.2098 48.2931C25.8034 49.83 23.0645 50.4321 20.8589 50.4321H12.5726C9.83293 50.4321 6.69185 50.8995 6.69185 44.1492C6.69185 37.3997 9.83217 37.8012 12.5726 37.8012H20.8589C23.0645 37.8012 25.9375 38.1352 27.8758 39.0714L25.5368 34.6608H11.7704C4.21882 34.5942 2.14648 38.1359 2.14648 44.15ZM26.8729 53.574C27.7417 52.5711 28.1424 52.3697 28.6771 51.435L37.0309 36.5991C37.2983 35.9977 37.2316 35.1956 37.0975 34.6608H44.0477C43.9811 35.2622 43.9811 35.7303 44.2485 36.1977L53.4702 51.3676C53.8043 51.7683 54.4723 52.5037 55.9433 53.5732H48.7257C49.2604 53.0377 49.5278 52.0364 49.0597 51.2343L40.506 37.2672L34.8926 46.4223H46.1193L47.6562 48.9627H33.4217L32.2189 50.8343C31.7508 51.6365 31.7508 52.5711 32.2189 53.574H26.8729Z" fill="white"/>
<path fill-rule="evenodd" clip-rule="evenodd" d="M69.7754 53.1711L80.134 38.0019L80.2007 51.301C80.134 51.9683 79.9325 52.9045 79.6652 53.5733H85.6141C85.1467 52.7037 84.8119 52.0364 84.6779 51.2343L83.0744 36.5318C82.9411 35.997 83.2759 34.9949 83.8099 34.6609H77.5285C77.6618 35.1956 77.4618 35.8637 77.1944 36.3318L69.7769 47.0912L62.3593 36.3318C62.0919 35.8637 61.892 35.1956 62.0253 34.6609H55.7439C56.2786 34.9949 56.6119 35.9978 56.4794 36.5318L54.8759 51.2343C54.7418 52.0364 54.4078 52.703 53.9404 53.5733H59.8878C59.6204 52.9045 59.4197 51.9683 59.3531 51.301L59.4197 38.0019L69.7754 53.1711ZM107.132 53.574C106.864 52.6719 106.063 51.735 105.527 51.1669C103.958 49.4301 98.0769 44.5189 95.1017 42.4799H104.725C107.132 42.4799 107.632 40.7098 107.632 39.6736C107.632 38.0027 106.328 36.7666 104.557 36.7332H92.2287V51.6358C92.2628 52.4705 92.6961 53.1385 93.0968 53.574H87.0494C87.6841 53.0385 88.0182 52.1364 88.0182 51.7024V36.1985C88.0182 35.3297 87.6841 34.8283 87.3493 34.4609H107.297C109.469 34.4609 112.076 36.6325 112.076 39.1389C112.076 43.5827 108.033 44.753 106.397 44.753H103.522L109.169 50.3996C110.472 51.8024 111.542 52.7386 114.314 53.2059V53.574H107.132ZM129.752 45.4536V51.6358C129.786 52.4705 130.219 53.1385 130.622 53.574H124.306C124.941 53.0385 125.275 52.1364 125.275 51.7024V45.6876L115.484 35.9985C114.716 35.2964 112.779 34.7957 111.241 34.7957V34.4276H119.761C119.461 34.7616 119.394 35.2297 119.627 35.4964L127.646 43.5494L135.198 35.9978C135.631 35.5638 135.766 34.8616 135.565 34.4609H143.852V34.7616C142.782 34.7616 141.011 34.7283 139.509 36.0311L129.752 45.4536Z" fill="white"/>
</svg>
