<svg width="128" height="66" viewBox="0 0 128 66" fill="none" xmlns="http://www.w3.org/2000/svg">
<g clip-path="url(#clip0_19_280)">
<path d="M80.9052 57.071C80.1386 60.2501 77.7405 61.5893 73.7259 61.5893C71.0013 61.5893 68.6047 61.0422 67.3718 59.8059C66.0349 58.4948 65.8335 56.6859 65.8335 54.7528V45.273H68.884V54.5906C68.884 56.6956 69.0571 57.951 69.8796 58.8756C70.8134 59.9597 72.4267 60.2768 73.7872 60.2768C76.665 60.2768 78.582 59.3447 79.1025 56.8126C79.2227 56.2293 79.3162 55.5146 79.3162 54.4113V45.2728H81.1939V53.7727C81.194 55.3599 81.1022 56.2563 80.9052 57.071Z" fill="white"/>
<path d="M80.9052 57.071C80.1386 60.2501 77.7405 61.5893 73.7259 61.5893C71.0013 61.5893 68.6047 61.0422 67.3718 59.8059C66.0349 58.4948 65.8335 56.6859 65.8335 54.7528V45.273H68.884V54.5906C68.884 56.6956 69.0571 57.951 69.8796 58.8756C70.8134 59.9597 72.4267 60.2768 73.7872 60.2768C76.665 60.2768 78.582 59.3447 79.1025 56.8126C79.2227 56.2293 79.3162 55.5146 79.3162 54.4113V45.2728H81.1939V53.7727C81.194 55.3599 81.1022 56.2563 80.9052 57.071Z" stroke="white" stroke-width="0.0293807"/>
<path d="M96.3619 48.2993L92.8286 55.6669H99.7208L96.3619 48.2993ZM102.236 61.2355L100.225 56.7522H92.3071L90.1524 61.2355H88.2163L96.1791 45.2725H98.0765L105.868 61.2355H102.236Z" fill="white"/>
<path d="M96.3619 48.2993L92.8286 55.6669H99.7208L96.3619 48.2993ZM102.236 61.2355L100.225 56.7522H92.3071L90.1524 61.2355H88.2163L96.1791 45.2725H98.0765L105.868 61.2355H102.236Z" stroke="white" stroke-width="0.0293807"/>
<path d="M23.6907 48.2993L20.1603 55.6669H27.0541L23.6907 48.2993ZM29.568 61.2355L27.5595 56.7522H19.64L17.4825 61.2355H15.5474L23.5103 45.2725H25.4063L33.2009 61.2355H29.568Z" fill="white"/>
<path d="M23.6907 48.2993L20.1603 55.6669H27.0541L23.6907 48.2993ZM29.568 61.2355L27.5595 56.7522H19.64L17.4825 61.2355H15.5474L23.5103 45.2725H25.4063L33.2009 61.2355H29.568Z" stroke="white" stroke-width="0.0293807"/>
<path d="M49.8176 61.5878C44.5461 61.5878 39.5361 59.7743 39.5361 53.6442C39.5361 51.6521 40.4203 49.6102 41.7556 48.1486C43.8486 45.8766 47.0268 44.9706 50.0281 44.9706C51.8428 44.9706 53.9451 45.3822 55.5807 46.2138V48.1097C54.0983 47.0042 52.1466 46.2419 50.2434 46.2419C45.907 46.2419 42.9163 48.9546 42.9163 53.4427C42.9163 57.505 45.5554 60.2855 49.6148 60.2855C50.6479 60.2855 52.0777 60.1018 53.0611 59.7248V53.8969H56.1116V60.4043C54.3221 61.2102 51.7825 61.5878 49.8176 61.5878Z" fill="white"/>
<path d="M49.8176 61.5878C44.5461 61.5878 39.5361 59.7743 39.5361 53.6442C39.5361 51.6521 40.4203 49.6102 41.7556 48.1486C43.8486 45.8766 47.0268 44.9706 50.0281 44.9706C51.8428 44.9706 53.9451 45.3822 55.5807 46.2138V48.1097C54.0983 47.0042 52.1466 46.2419 50.2434 46.2419C45.907 46.2419 42.9163 48.9546 42.9163 53.4427C42.9163 57.505 45.5554 60.2855 49.6148 60.2855C50.6479 60.2855 52.0777 60.1018 53.0611 59.7248V53.8969H56.1116V60.4043C54.3221 61.2102 51.7825 61.5878 49.8176 61.5878Z" stroke="white" stroke-width="0.0293807"/>
<path d="M118.928 46.3809H116.685V54.0175H118.647C120.292 54.0175 121.276 53.7105 122.042 53.0927C122.852 52.443 123.336 51.4464 123.336 50.0994C123.335 47.4017 121.375 46.3809 118.928 46.3809ZM124.113 61.2356L119.883 55.1058H116.685V61.2356H113.633V45.2728H119.406C121.749 45.2728 124.093 45.6125 125.398 47.0546C126.081 47.808 126.452 48.856 126.452 50.2045C126.452 52.6717 124.592 54.1661 122.935 54.7541L127.626 61.2358L124.113 61.2356Z" fill="white"/>
<path d="M118.928 46.3809H116.685V54.0175H118.647C120.292 54.0175 121.276 53.7105 122.042 53.0927C122.852 52.443 123.336 51.4464 123.336 50.0994C123.335 47.4017 121.375 46.3809 118.928 46.3809ZM124.113 61.2356L119.883 55.1058H116.685V61.2356H113.633V45.2728H119.406C121.749 45.2728 124.093 45.6125 125.398 47.0546C126.081 47.808 126.452 48.856 126.452 50.2045C126.452 52.6717 124.592 54.1661 122.935 54.7541L127.626 61.2358L124.113 61.2356Z" stroke="white" stroke-width="0.0293807"/>
<path d="M2.65423 64.517C1.84857 64.8958 0.965877 65.1467 0.0576172 65.1467C2.14905 63.6344 3.03317 62.0962 3.33539 59.5491C3.51279 58.1358 3.51279 56.7224 3.51279 55.3105V45.2729H6.56504V57.354C6.56536 60.3038 5.42999 63.1561 2.65423 64.517Z" fill="white"/>
<path d="M2.65423 64.517C1.84857 64.8958 0.965877 65.1467 0.0576172 65.1467C2.14905 63.6344 3.03317 62.0962 3.33539 59.5491C3.51279 58.1358 3.51279 56.7224 3.51279 55.3105V45.2729H6.56504V57.354C6.56536 60.3038 5.42999 63.1561 2.65423 64.517Z" stroke="white" stroke-width="0.0293807"/>
<path d="M21.8427 2.65882C22.9387 2.69185 23.88 2.28291 23.8832 2.22431C23.8862 2.1657 22.6697 2.04993 22.6697 2.04993C21.5556 2.09646 21.1014 2.50985 21.0954 2.55813C21.0879 2.60451 21.3857 2.64358 21.8427 2.65882Z" fill="white"/>
<path d="M14.3923 4.54583C14.3923 4.54583 14.4585 4.31269 14.4871 4.26171C14.5157 4.20899 14.6752 3.67076 15.4448 3.61216C15.4448 3.61216 15.8326 3.57754 16.2793 3.71587C16.2793 3.71587 16.0222 4.37892 14.9699 4.48866C14.9698 4.48866 14.556 4.55044 14.3923 4.54583ZM117.436 34.4382C117.174 35.0843 116.054 35.9073 114.738 36.3473C113.349 36.8117 110.449 36.8238 108.965 36.3308C108.965 36.3308 108.652 35.9908 107.608 35.6843C105.182 34.9704 104.397 34.4727 103.165 33.3254C102.295 32.5151 101.337 31.4987 100.408 30.5407C99.9946 30.1139 98.9887 29.1063 97.2206 28.7997C95.376 28.4809 90.8485 28.135 89.1812 27.5457C88.0595 27.1474 86.7301 26.3911 85.0616 23.8952C84.2616 22.6969 83.6556 22.348 82.5009 21.6112C82.5009 21.6112 83.3821 22.3073 83.8454 23.1524C84.5143 24.3794 84.8346 25.2621 85.1999 25.9143C85.5679 26.5715 85.9938 27.1566 86.6583 27.6902C87.4822 28.3518 88.0146 28.4976 88.9452 28.6855C89.8352 28.866 92.874 28.9999 95.4813 29.102C98.0447 29.2013 99.1408 29.9952 99.9422 30.6675C100.679 31.2897 101.853 33.0673 102.677 33.7947C103.779 34.7632 103.808 34.7767 105.087 35.5795C105.734 35.9852 106.304 36.2511 106.829 36.4396C108.003 37.1295 107.517 38.3339 107.517 38.3339C107.181 39.2935 105.969 39.6373 104.554 39.4372C102.416 39.2482 100.575 37.4647 99.0207 36.1852C98.1652 35.4799 97.8628 35.1279 96.2134 33.9821C93.704 32.2413 87.8072 32.3855 87.8072 32.3855L83.4858 32.3584C75.0688 32.4818 71.9892 25.7098 71.149 24.2887C70.8588 23.7941 70.5898 23.3957 70.3339 23.0693C69.9415 22.54 67.8293 19.7827 65.5662 18.7978C65.5662 18.7978 67.7387 20.6773 67.5208 21.7057C67.0547 21.6997 66.5254 21.7297 65.8938 21.7478C57.4139 21.9961 55.6517 21.5268 54.3121 21.2592C52.9707 20.99 50.723 20.3225 48.5385 19.3165C48.5385 19.3165 48.7822 17.2267 47.9146 15.4901C47.9146 15.4901 54.9138 17.9618 60.4827 17.2613C60.4827 17.2613 51.4946 16.8222 45.8879 12.3539C45.8879 12.3539 47.2714 17.0766 46.1781 19.0597C46.1781 19.0597 44.7048 22.6607 37.1492 20.258C37.1492 20.258 33.6743 18.9063 30.9724 18.9063C30.9724 18.9063 28.9381 18.9905 28.6948 20.0506C28.6948 20.0506 28.5622 20.5572 29.0931 20.7978C29.0931 20.7978 29.6825 20.9663 29.4042 21.4037C28.9458 22.1269 28.3094 22.6863 27.6781 23.0018C25.5701 22.8981 25.7264 21.1675 25.7264 21.1675C25.7641 20.554 25.9626 20.1255 26.1505 19.7031C27.475 16.7396 32.13 16.3095 32.13 16.3095C37.0828 15.815 42.2746 17.0042 42.2746 17.0042C38.5607 16.1185 37.2978 15.4689 36.2361 14.5834C34.8062 13.3896 33.4697 9.37824 33.4697 9.37824C32.8999 11.3448 33.6052 13.3326 34.0818 14.3534C33.3779 13.2303 32.3752 12.2817 31.4806 11.5643C29.1937 9.73128 25.8736 9.13906 25.8736 9.13906C24.9142 8.97501 24.5339 7.98131 24.5339 7.98131C23.3039 5.71693 21.9117 5.61021 21.9117 5.61021C22.5971 6.54991 22.525 7.83552 22.525 7.83552C22.525 10.2052 19.4775 10.9916 19.4775 10.9916C17.1979 13.2574 16.8026 13.2092 16.3575 13.2424C15.9123 13.274 15.5833 12.8123 15.5833 12.8123C15.4387 12.5957 15.6793 12.4018 15.6793 12.4018C16.0641 12.1611 16.4282 11.847 16.4282 11.847C18.6504 10.0623 18.9631 9.14971 18.7827 7.9046C18.4203 5.41757 16.4147 5.60115 16.4147 5.60115C15.4718 5.60115 15.0058 6.31979 15.0058 6.31979C14.642 6.75288 13.8465 8.10741 13.8465 8.10741C13.1458 9.26532 12.5189 9.09523 12.5189 9.09523C11.7461 9.14494 11.1868 8.45918 11.1868 8.45918C11.1566 8.43234 11.1341 8.40058 11.1087 8.37358C10.536 7.75849 11.0289 7.01587 11.0289 7.01587C11.972 5.34991 13.5986 5.18617 13.8196 5.17251C14.042 5.15901 14.7924 5.10327 14.7924 5.10327C16.6294 4.96955 17.8294 3.21338 17.8294 3.21338C17.0552 2.83905 15.672 3.03757 15.672 3.03757C14.3248 3.12778 13.9699 4.55758 13.967 4.55758C12.8002 4.7291 12.8588 3.83291 13.1085 3.59691C13.3054 3.36536 13.9999 2.24064 18.467 1.57012C18.467 1.57012 20.8367 1.10099 25.0451 1.56266C25.2 1.57918 25.3502 1.71465 25.1518 1.94906C24.6225 2.57018 22.9672 3.94726 20.3118 3.28119C20.3118 3.28119 20.2638 4.34271 23.1597 4.87347C23.1597 4.87347 25.7714 5.42963 30.0354 8.85479C30.0354 8.85479 27.9681 5.03133 24.3941 3.86595C24.3941 3.86595 24.1294 3.6976 24.37 3.45557C24.37 3.45557 26.0614 1.93984 29.046 2.09929C29.046 2.09929 38.9153 2.60607 44.4635 8.39613C44.4635 8.39613 44.2712 7.43086 43.4261 6.03107C43.4261 6.03107 43.2562 5.86415 43.3539 5.7425C43.3539 5.7425 43.4261 5.50031 44.3914 5.69422C44.3914 5.69422 47.9142 6.27326 56.0919 9.26516C56.0919 9.26516 62.222 11.4138 65.5646 12.8001C70.5895 14.8824 83.1784 19.9886 91.1296 24.3895C92.5491 25.1744 98.4625 28.0958 98.4625 28.0958C102.883 30.8396 106.95 32.8259 106.95 32.8259C110.956 34.6769 113.868 33.8288 113.868 33.8288C114.798 33.4783 116.576 32.5134 117.269 33.1987C117.622 33.5495 117.643 34.0062 117.436 34.4382ZM118.432 32.8849C117.909 31.6656 116.224 31.9647 116.224 31.9647C115.453 32.0114 114.48 32.8185 113.128 33.0966C110.22 33.6966 107.996 32.7075 107.996 32.7075C103.711 30.789 100.811 28.699 98.9239 27.6194C97.0372 26.5399 90.0531 22.8711 83.0675 19.3604C83.0675 19.3604 75.0655 15.2587 63.2263 10.3645C63.2263 10.3645 40.3842 0.000401286 23.955 0.000401286C23.955 0.000401286 15.4449 -0.106481 12.5628 3.16843C12.5628 3.16843 12.0546 3.58945 12.3025 4.10814C12.3025 4.10814 12.3371 4.25107 12.2304 4.34271C12.2304 4.34271 10.9629 5.17569 9.93121 6.37093C9.93121 6.37093 9.37822 6.93631 9.8229 7.77977C9.8229 7.77977 10.3732 8.73901 10.7207 9.15114C11.071 9.56151 11.7716 10.2803 12.842 10.1736C13.3155 10.1255 13.329 10.0068 13.329 10.0068C13.8207 10.503 14.6793 10.533 14.6793 10.533C14.5935 10.2279 14.2657 9.62329 14.2371 9.27152C14.2055 8.87766 14.3588 8.51222 14.3588 8.51222C14.5378 8.07914 14.8732 7.54234 15.2147 7.27474C15.5183 7.03715 16.2714 6.79067 16.8338 7.18453C17.2851 7.50042 17.7644 8.51222 17.2233 9.84436C17.2233 9.84436 16.6144 10.8968 16.0521 11.014L15.896 11.0215C15.574 11.0155 14.857 10.6202 14.857 10.6202C14.857 10.6202 14.827 10.7059 14.9065 11.0683C14.9531 11.2742 15.0193 11.5029 15.0751 11.6787L14.9261 11.7989C14.9261 11.7989 14.4735 12.1629 14.6736 12.6876C14.6736 12.6876 15.1141 14.3445 16.344 14.3445C17.4312 14.3807 18.3361 13.3492 18.3361 13.3492C20.6683 10.8338 23.955 10.4955 23.955 10.4955C27.5979 10.2473 32.8037 13.9777 34.2214 15.0543C28.8266 14.9957 26.6495 17.066 26.6495 17.066C23.6109 19.4312 24.7939 22.2849 24.7939 22.2849C25.0151 22.9057 25.6375 23.3584 26.0345 23.5327C26.607 23.7822 27.0779 23.7927 27.5215 23.7432C27.8418 23.7085 28.1933 23.5898 28.3723 23.4665C28.7858 23.2227 29.524 22.7403 29.8804 22.2274C30.1181 21.9703 30.357 21.3405 30.1991 20.7405C30.1991 20.7405 30.1032 20.2578 30.5376 20.16C30.5376 20.16 31.9672 19.7977 34.8543 21.0729C34.8543 21.0729 37.9907 22.9011 42.0592 23.2636C42.0592 23.2636 46.6858 23.7327 47.8031 21.2277C47.8031 21.2277 50.4611 22.3148 54.351 22.76C54.351 22.76 58.1413 23.1522 64.2896 22.6893C65.4996 22.5975 66.9205 22.6983 66.9205 22.6983C68.8887 22.9343 70.1397 23.9584 70.6328 24.7597C72.6478 28.0313 75.0518 34.4501 84.8958 34.1962L89.3509 34.0739C92.059 34.0739 94.2642 34.0966 96.4295 35.2542C97.3751 35.761 99.8729 38.2401 101.411 39.0775C105.965 42.1466 108.596 40.7198 108.596 40.7198C110.146 39.8163 110.025 38.2086 109.647 37.3085C109.181 37.1606 115.29 38.2042 117.894 34.784C118.511 34.0215 118.619 33.3225 118.432 32.8849Z" fill="white"/>
</g>
<defs>
<clipPath id="clip0_19_280">
<rect width="127.667" height="65.1611" fill="white"/>
</clipPath>
</defs>
</svg>
